http://kickass.to/tv/genre/fashion-make-up/?rss=1
HTTP/1.1 200 OK
Server: nginx/1.5.13
Date: Wed, 23 Jul 2014 11:59:01 GMT
Content-Type: application/rss+xml; charset=utf-8
Connection: close
X-Powered-By: PHP/5.5.13-pl0-gentoo
Set-Cookie: lang_detected=en; expires=Thu, 23-Jul-2015 11:59:00 GMT; Max-Age=31536000; path=/; domain=.kickass.to
Set-Cookie: lang_code=en; expires=Thu, 23-Jul-2015 11:59:00 GMT; Max-Age=31536000; path=/; domain=.kickass.to
Cache-Control: public
Set-Cookie: country_code=US; Path=/;

<?xml version="1.0" encoding="UTF-8"?>
<rss version="2.0" xmlns:torrent="http://xmlns.ezrss.it/0.1/">
<channel>
    <title>Fashion Make Up tv shows torrents RSS feed - KickassTorrents</title>
    <link>http://kickass.to/</link>
    <description>Fashion Make Up tv shows torrents RSS feed</description>
    <item>
        <title>The Daily Show 2014 07 22 Richard Linklater 480p HDTV x264-mSD</title>
      <description><![CDATA[[center][size=100]
[img]http://www.imgclik.com/images/68410927402564833563.jpg[/img]

[color=blue][b]PLOT:........ [/b][/color]America&#039;s top fake news show.


[color=blue][b]
ACTORS:........ [/b][/color]Jon Stewart, Stephen Colbert, John Oliver


[color=blue][b]
RELEASED:........ [/b][/color]1996


[color=blue][b]
IMDB:........ [/b][/color]http://www.imdb.com/title/tt0115147/


[i][color=blue][b]
SIZE:........ [/b][/color] 92682681 bytes (88.39 MiB), 
[color=blue][b]DURATION:............ [/b][/color] 00:21:28, 
[color=blue][b]AVG-BITRATE:......... [/b][/color] 576 kb/s
[color=blue][b]AUDIO:....... [/b][/color] aac, 48000 Hz, stereo (eng)
[color=blue][b]VIDEO:....... [/b][/color] h264, yuv420p, 852x480, 29.97 fps(r) (eng)
[/i]

[color=blue][b][url=http://www.imgclik.com/viewer.php?file=76754275093360381845.jpg]Screens[/url][/b][/color]
 [color=blue][b][url=http://www.imgclik.com/viewer.php?file=22589483059267860995.jpg]Screens[/url][/b][/color]
 
[color=blue][b][url=http://www.imgclik.com/viewer.php?file=39642382321411088651.jpg]Screens[/url][/b][/color]
 [color=blue][b][url=http://www.imgclik.com/viewer.php?file=48816150419424422840.jpg]Screens[/url][/b][/color]
 [color=blue][b][url=http://www.imgclik.com/viewer.php?file=80588896378431448539.jpg]Screens[/url][/b][/color]
 



[color=green][b]I KNOW YOU WANT IT[/b][/color]


[color=green][b]DOWNLOAD AND ENJOY.[/b][/color]



[color=silver][b]KEEP IT FOR LONG SEEDING TO HELP OTHERS[/b][/color]
[/size]
[size=100][color=silver]
 Thanks to : mSD
 Movie Share [/color][/size][/center]]]></description>
        <category>TV</category>
      <author>http://kickass.to/user/hotpena/</author>        <link>http://kickass.to/the-daily-show-2014-07-22-richard-linklater-480p-hdtv-x264-msd-t9366551.html</link>
        <guid>http://kickass.to/the-daily-show-2014-07-22-richard-linklater-480p-hdtv-x264-msd-t9366551.html</guid>
        <pubDate>Wed, 23 Jul 2014 08:49:21 +0000</pubDate>
        <torrent:contentLength>92692356</torrent:contentLength>
        <torrent:infoHash>4DBEA8F73AC682EB38943B95144E572F7213C25C</torrent:infoHash>
        <torrent:magnetURI><![CDATA[magnet:?xt=urn:btih:4DBEA8F73AC682EB38943B95144E572F7213C25C&dn=the+daily+show+2014+07+22+richard+linklater+480p+hdtv+x264+msd&tr=udp%3A%2F%2Fopen.demonii.com%3A1337%2Fannounce]]></torrent:magnetURI>
        <torrent:seeds>1</torrent:seeds>
        <torrent:peers>79</torrent:peers>
        <torrent:verified>1</torrent:verified>
        <torrent:fileName>the.daily.show.2014.07.22.richard.linklater.480p.hdtv.x264.msd.torrent</torrent:fileName>
        <enclosure url="http://torcache.net/torrent/4DBEA8F73AC682EB38943B95144E572F7213C25C.torrent?title=[kickass.to]the.daily.show.2014.07.22.richard.linklater.480p.hdtv.x264.msd" length="92692356" type="application/x-bittorrent" />
    </item>
    <item>
        <title>The Real Housewives Of New York City S06E20 The Last Leg WEB-DL x264-RKSTR mp4</title>
      <description><![CDATA[[b][size=200]Ep 20: The Last Leg[/size]
When Aviva returns to the group insults, accusations, and body parts fly in the epic season-ending confrontation.[/b]
[img]http://www.bravotv.com/media/imagecache/576x324/images/promote/2014/07/wap-real-housewives-of-new-york-season-6-the-ladies-prepare-to-see-aviva_0.jpg[/img]
After being swooned and then ditched at Carole&#039;s birthday party, Sonja must confront both Harry and LuAnn about their alleged &quot;night together.&quot; Meanwhile, Kristen pulls some matrimonial strings to get a modeling job. Then, when Aviva returns to the group for the first time in weeks -- insults, accusations, and body parts fly in an epic season-ending confrontation.]]></description>
        <category>TV</category>
      <author>http://kickass.to/user/rockster/</author>        <link>http://kickass.to/the-real-housewives-of-new-york-city-s06e20-the-last-leg-web-dl-x264-rkstr-mp4-t9366395.html</link>
        <guid>http://kickass.to/the-real-housewives-of-new-york-city-s06e20-the-last-leg-web-dl-x264-rkstr-mp4-t9366395.html</guid>
        <pubDate>Wed, 23 Jul 2014 07:34:48 +0000</pubDate>
        <torrent:contentLength>481953035</torrent:contentLength>
        <torrent:infoHash>C12838C1A6D9185B03B876944B41A1C821C00734</torrent:infoHash>
        <torrent:magnetURI><![CDATA[magnet:?xt=urn:btih:C12838C1A6D9185B03B876944B41A1C821C00734&dn=the+real+housewives+of+new+york+city+s06e20+the+last+leg+web+dl+x264+rkstr+mp4&tr=udp%3A%2F%2Fopen.demonii.com%3A1337%2Fannounce]]></torrent:magnetURI>
        <torrent:seeds>837</torrent:seeds>
        <torrent:peers>1301</torrent:peers>
        <torrent:verified>1</torrent:verified>
        <torrent:fileName>the.real.housewives.of.new.york.city.s06e20.the.last.leg.web.dl.x264.rkstr.mp4.torrent</torrent:fileName>
        <enclosure url="http://torcache.net/torrent/C12838C1A6D9185B03B876944B41A1C821C00734.torrent?title=[kickass.to]the.real.housewives.of.new.york.city.s06e20.the.last.leg.web.dl.x264.rkstr.mp4" length="481953035" type="application/x-bittorrent" />
    </item>
    <item>
        <title>Face Off S07E01 Life and Death READ NFO HDTV x264-tNe</title>
      <description><![CDATA[Video
Format: x264/AVC
Dimensions: 720,404
Bit rate: Variable

Audio
Format: AAC-LC
Channels: Stereo
Bit rate: Variable


First off, am well aware CRiMSON already released a copy.
However, their copy has blurry edges, washed colors, over-cropped, and a promo in the middle.
Even though we&#039;re just pirates, we should expect better from the &quot;Scene.&quot;
So basically this is a P2P PROPER of a Scene release.
Good job, CRiM, and I thought I wouldn&#039;t have to do this season.


Enjoy the &#039;tNe&#039; copy.]]></description>
        <category>TV</category>
      <author>http://kickass.to/user/tNe/</author>        <link>http://kickass.to/face-off-s07e01-life-and-death-read-nfo-hdtv-x264-tne-t9366310.html</link>
        <guid>http://kickass.to/face-off-s07e01-life-and-death-read-nfo-hdtv-x264-tne-t9366310.html</guid>
        <pubDate>Wed, 23 Jul 2014 07:02:28 +0000</pubDate>
        <torrent:contentLength>293679438</torrent:contentLength>
        <torrent:infoHash>A592AC9571C67EFD6847A9D5DBE5197A066964F5</torrent:infoHash>
        <torrent:magnetURI><![CDATA[magnet:?xt=urn:btih:A592AC9571C67EFD6847A9D5DBE5197A066964F5&dn=face+off+s07e01+life+and+death+read+nfo+hdtv+x264+tne&tr=udp%3A%2F%2Fopen.demonii.com%3A1337%2Fannounce]]></torrent:magnetURI>
        <torrent:seeds>154</torrent:seeds>
        <torrent:peers>248</torrent:peers>
        <torrent:verified>1</torrent:verified>
        <torrent:fileName>face.off.s07e01.life.and.death.read.nfo.hdtv.x264.tne.torrent</torrent:fileName>
        <enclosure url="http://torcache.net/torrent/A592AC9571C67EFD6847A9D5DBE5197A066964F5.torrent?title=[kickass.to]face.off.s07e01.life.and.death.read.nfo.hdtv.x264.tne" length="293679438" type="application/x-bittorrent" />
    </item>
    <item>
        <title>Face Off S07E01 Life and Death 480p HDTV x264-mSD</title>
      <description><![CDATA[[center][size=100]
[img]http://www.imgclik.com/images/75092447045437398445.jpg[/img]

[color=blue][b]PLOT:........ [/b][/color]Face Off is a competition/elimination series exploring the world of special-effects make-up artists and the unlimited imagination which allows them to create amazing works of living art. ... 


[color=blue][b]
ACTORS:........ [/b][/color]McKenzie Westmore, Ve Neill, Glenn Hetrick


[color=blue][b]
IMDB:........ [/b][/color]http://www.imdb.com/title/tt1663641/


[i][color=blue][b]
SIZE:........ [/b][/color] 258202870 bytes (246.24 MiB), 
[color=blue][b]DURATION:............ [/b][/color] 00:42:59, 
[color=blue][b]AVG-BITRATE:......... [/b][/color] 801 kb/s
[color=blue][b]AUDIO:....... [/b][/color] aac, 48000 Hz, stereo
[color=blue][b]VIDEO:....... [/b][/color] h264, yuv420p, 852x480, 23.98 fps(r) (eng)
[/i]

[color=blue][b][url=http://www.imgclik.com/viewer.php?file=87659117149907348583.jpg]Screens[/url][/b][/color]
 [color=blue][b][url=http://www.imgclik.com/viewer.php?file=67845367058429193585.jpg]Screens[/url][/b][/color]
 
[color=blue][b][url=http://www.imgclik.com/viewer.php?file=09561681683738372666.jpg]Screens[/url][/b][/color]
 [color=blue][b][url=http://www.imgclik.com/viewer.php?file=03504196111246024609.jpg]Screens[/url][/b][/color]
 [color=blue][b][url=http://www.imgclik.com/viewer.php?file=03104888474706062784.jpg]Screens[/url][/b][/color]
 



[color=green][b]I KNOW YOU WANT IT[/b][/color]


[color=green][b]DOWNLOAD AND ENJOY.[/b][/color]



[color=silver][b]KEEP IT FOR LONG SEEDING TO HELP OTHERS[/b][/color]
[/size]
[size=100][color=silver]
 Thanks to : mSD
 Movie Share [/color][/size][/center]]]></description>
        <category>TV</category>
      <author>http://kickass.to/user/hotpena/</author>        <link>http://kickass.to/face-off-s07e01-life-and-death-480p-hdtv-x264-msd-t9366272.html</link>
        <guid>http://kickass.to/face-off-s07e01-life-and-death-480p-hdtv-x264-msd-t9366272.html</guid>
        <pubDate>Wed, 23 Jul 2014 06:49:15 +0000</pubDate>
        <torrent:contentLength>258212509</torrent:contentLength>
        <torrent:infoHash>BBEC1EB695AEAE6FFA867F2862C3EE6536F5A652</torrent:infoHash>
        <torrent:magnetURI><![CDATA[magnet:?xt=urn:btih:BBEC1EB695AEAE6FFA867F2862C3EE6536F5A652&dn=face+off+s07e01+life+and+death+480p+hdtv+x264+msd&tr=udp%3A%2F%2Fopen.demonii.com%3A1337%2Fannounce]]></torrent:magnetURI>
        <torrent:seeds>1</torrent:seeds>
        <torrent:peers>53</torrent:peers>
        <torrent:verified>1</torrent:verified>
        <torrent:fileName>face.off.s07e01.life.and.death.480p.hdtv.x264.msd.torrent</torrent:fileName>
        <enclosure url="http://torcache.net/torrent/BBEC1EB695AEAE6FFA867F2862C3EE6536F5A652.torrent?title=[kickass.to]face.off.s07e01.life.and.death.480p.hdtv.x264.msd" length="258212509" type="application/x-bittorrent" />
    </item>
    <item>
        <title>Face Off S07E01 Life and Death 720p HDTV x264-DHD</title>
      <description><![CDATA[[b]Face.Off.S07E01.Life.and.Death.720p.HDTV.x264-DHD.mkv[/b]

[b]SIZE:[/b] 1219828529 bytes (1.14 GiB), 

[b]DURATION:[/b] 00:42:59, 

[b]AVG-BITRATE:[/b] 3784 kb/s

[b]AUDIO:[/b] ac3, 48000 Hz, 5:1

[b]VIDEO:[/b] h264, yuv420p, 1280x720, 23.98 fps(r)

[b]SCREENS:[/b]
[url=http://www.vivaex.com/viewer.php?file=35202557361487412904.jpg][img]http://www.vivaex.com/images/35202557361487412904_thumb.jpg[/img][/url] 

[url=http://www.vivaex.com/viewer.php?file=51478374615933268911.jpg][size=150][b]View large Image[/b][/size][/url]

[url=http://www.vivaex.com/viewer.php?file=37894636718692780318.jpg][size=150][b]View large Image[/b][/size][/url]



[url=https://www.facebook.com/pages/High-Quality-Download-Links/1446110842281782]https://www.facebook.com/pages/High-Quality-Download-Links/1446110842281782[/url]

NOTE: If Rar files, then use winrar for decompress it http://www.rarlab.com/download.htm 
 Most of video format are supported by VLC http://www.videolan.org/vlc/]]></description>
        <category>TV</category>
      <author>http://kickass.to/user/brasse0/</author>        <link>http://kickass.to/face-off-s07e01-life-and-death-720p-hdtv-x264-dhd-t9366055.html</link>
        <guid>http://kickass.to/face-off-s07e01-life-and-death-720p-hdtv-x264-dhd-t9366055.html</guid>
        <pubDate>Wed, 23 Jul 2014 05:19:45 +0000</pubDate>
        <torrent:contentLength>1219833132</torrent:contentLength>
        <torrent:infoHash>A8F5269B3FB07001E47C4AC0DBD64378A0375B29</torrent:infoHash>
        <torrent:magnetURI><![CDATA[magnet:?xt=urn:btih:A8F5269B3FB07001E47C4AC0DBD64378A0375B29&dn=face+off+s07e01+life+and+death+720p+hdtv+x264+dhd&tr=udp%3A%2F%2Fopen.demonii.com%3A1337%2Fannounce]]></torrent:magnetURI>
        <torrent:seeds>1</torrent:seeds>
        <torrent:peers>5</torrent:peers>
        <torrent:verified>1</torrent:verified>
        <torrent:fileName>face.off.s07e01.life.and.death.720p.hdtv.x264.dhd.torrent</torrent:fileName>
        <enclosure url="http://torcache.net/torrent/A8F5269B3FB07001E47C4AC0DBD64378A0375B29.torrent?title=[kickass.to]face.off.s07e01.life.and.death.720p.hdtv.x264.dhd" length="1219833132" type="application/x-bittorrent" />
    </item>
    <item>
        <title>Face.Off.S07E01.Life.and.Death.720p.HDTV.x264-DHD[rartv]</title>
      <description><![CDATA[Face.Off.S07E01.Life.and.Death.720p.HDTV.x264-DHD[rartv]

[img]//dyncdn.me/posters2/f/f1823bc0c25e3ca4208cb4b6380fdbd63e5a73a7.jpg[/img]



[mediainfo]

Video
ID : 1
Format : AVC
Format/Info : Advanced Video Codec
Format profile : High@L4.1
Format settings, CABAC : Yes
Format settings, ReFrames : 5 frames
Codec ID : V_MPEG4/ISO/AVC
Duration : 42mn 59s
Bit rate : 3 323 Kbps
Width : 1 280 pixels
Height : 720 pixels
Display aspect ratio : 16:9
Frame rate mode : Constant
Frame rate : 23.976 fps
Color space : YUV
Chroma subsampling : 4:2:0
Bit depth : 8 bits
Scan type : Progressive
Bits/(Pixel*Frame) : 0.150
Stream size : 1 022 MiB (88%)
Writing library : x264 core 142 r2453 ea0ca51
Encoding settings : cabac=1 / ref=5 / deblock=1:0:0 / analyse=0x3:0x113 / me=umh / subme=8 / psy=1 / psy_rd=1.00:0.00 / mixed_ref=1 / me_range=16 / chroma_me=1 / trellis=1 / 8x8dct=1 / cqm=0 / deadzone=21,11 / fast_pskip=1 / chroma_qp_offset=-2 / threads=12 / lookahead_threads=2 / sliced_threads=0 / nr=0 / decimate=1 / interlaced=0 / bluray_compat=0 / constrained_intra=0 / bframes=3 / b_pyramid=2 / b_adapt=2 / b_bias=0 / direct=3 / weightb=1 / open_gop=0 / weightp=2 / keyint=250 / keyint_min=23 / scenecut=40 / intra_refresh=0 / rc_lookahead=50 / rc=crf / mbtree=1 / crf=20.0 / qcomp=0.60 / qpmin=0 / qpmax=69 / qpstep=4 / ip_ratio=1.40 / aq=1:1.00
Default : Yes
Forced : No
Matrix coefficients : BT.709

Audio
ID : 2
Format : AC-3
Format/Info : Audio Coding 3
Mode extension : CM (complete main)
Format settings, Endianness : Big
Codec ID : A_AC3
Duration : 42mn 59s
Bit rate mode : Constant
Bit rate : 384 Kbps
Channel(s) : 6 channels
Channel positions : Front: L C R, Side: L R, LFE
Sampling rate : 48.0 KHz
Bit depth : 16 bits
Compression mode : Lossy
Stream size : 118 MiB (10%)
Default : Yes
Forced : No




[/mediainfo]

]]></description>
        <category>TV</category>
      <author>http://kickass.to/user/TryMeS/</author>        <link>http://kickass.to/face-off-s07e01-life-and-death-720p-hdtv-x264-dhd-rartv-t9366052.html</link>
        <guid>http://kickass.to/face-off-s07e01-life-and-death-720p-hdtv-x264-dhd-rartv-t9366052.html</guid>
        <pubDate>Wed, 23 Jul 2014 05:17:32 +0000</pubDate>
        <torrent:contentLength>1258246698</torrent:contentLength>
        <torrent:infoHash>F1823BC0C25E3CA4208CB4B6380FDBD63E5A73A7</torrent:infoHash>
        <torrent:magnetURI><![CDATA[magnet:?xt=urn:btih:F1823BC0C25E3CA4208CB4B6380FDBD63E5A73A7&dn=face+off+s07e01+life+and+death+720p+hdtv+x264+dhd+rartv&tr=udp%3A%2F%2F12.rarbg.me%3A80%2Fannounce&tr=udp%3A%2F%2Fopen.demonii.com%3A1337]]></torrent:magnetURI>
        <torrent:seeds>92</torrent:seeds>
        <torrent:peers>142</torrent:peers>
        <torrent:verified>1</torrent:verified>
        <torrent:fileName>face.off.s07e01.life.and.death.720p.hdtv.x264.dhd.rartv.torrent</torrent:fileName>
        <enclosure url="http://torcache.net/torrent/F1823BC0C25E3CA4208CB4B6380FDBD63E5A73A7.torrent?title=[kickass.to]face.off.s07e01.life.and.death.720p.hdtv.x264.dhd.rartv" length="1258246698" type="application/x-bittorrent" />
    </item>
    <item>
        <title>Face.Off.S07E01.HDTV.x264-CRiMSON[rartv]</title>
      <description><![CDATA[Face.Off.S07E01.HDTV.x264-CRiMSON[rartv]

[img]//dyncdn.me/posters2/d/d0f04ddddf8298f96302e7640b397850e085fb12.jpg[/img]



[mediainfo]

Video
ID : 1
Format : AVC
Format/Info : Advanced Video Codec
Format profile : High@L3.1
Format settings, CABAC : Yes
Format settings, ReFrames : 5 frames
Codec ID : avc1
Codec ID/Info : Advanced Video Coding
Duration : 43mn 14s
Bit rate : 808 Kbps
Maximum bit rate : 4 600 Kbps
Width : 720 pixels
Height : 404 pixels
Display aspect ratio : 16:9
Original display aspect ratio : 16:9
Frame rate mode : Constant
Frame rate : 23.976 fps
Color space : YUV
Chroma subsampling : 4:2:0
Bit depth : 8 bits
Scan type : Progressive
Bits/(Pixel*Frame) : 0.116
Stream size : 250 MiB (85%)
Writing library : x264 core 142 r2431 ac76440
Encoding settings : cabac=1 / ref=5 / deblock=1:-1:-1 / analyse=0x3:0x113 / me=umh / subme=8 / psy=1 / psy_rd=1.00:0.15 / mixed_ref=1 / me_range=16 / chroma_me=1 / trellis=1 / 8x8dct=1 / cqm=0 / deadzone=21,11 / fast_pskip=1 / chroma_qp_offset=-3 / threads=12 / lookahead_threads=2 / sliced_threads=0 / nr=0 / decimate=1 / interlaced=0 / bluray_compat=0 / constrained_intra=0 / bframes=3 / b_pyramid=2 / b_adapt=2 / b_bias=0 / direct=3 / weightb=1 / open_gop=0 / weightp=2 / keyint=240 / keyint_min=23 / scenecut=40 / intra_refresh=0 / rc_lookahead=50 / rc=crf / mbtree=1 / crf=21.0 / qcomp=0.60 / qpmin=0 / qpmax=69 / qpstep=4 / ip_ratio=1.40 / aq=1:1.00
Encoded date : UTC 2014-07-23 04:25:38
Tagged date : UTC 2014-07-23 04:37:27
Matrix coefficients : BT.709

Audio
ID : 2
Format : AAC
Format/Info : Advanced Audio Codec
Format profile : LC
Codec ID : 40
Duration : 43mn 15s
Bit rate mode : Variable
Bit rate : 144 Kbps
Maximum bit rate : 160 Kbps
Channel(s) : 2 channels
Channel positions : Front: L R
Sampling rate : 48.0 KHz
Compression mode : Lossy
Stream size : 43.9 MiB (15%)
Encoded date : UTC 2014-07-23 04:26:30
Tagged date : UTC 2014-07-23 04:37:27




[/mediainfo]

]]></description>
        <category>TV</category>
      <author>http://kickass.to/user/TryMeS/</author>        <link>http://kickass.to/face-off-s07e01-hdtv-x264-crimson-rartv-t9365979.html</link>
        <guid>http://kickass.to/face-off-s07e01-hdtv-x264-crimson-rartv-t9365979.html</guid>
        <pubDate>Wed, 23 Jul 2014 04:49:05 +0000</pubDate>
        <torrent:contentLength>309404107</torrent:contentLength>
        <torrent:infoHash>D0F04DDDDF8298F96302E7640B397850E085FB12</torrent:infoHash>
        <torrent:magnetURI><![CDATA[magnet:?xt=urn:btih:D0F04DDDDF8298F96302E7640B397850E085FB12&dn=face+off+s07e01+hdtv+x264+crimson+rartv&tr=udp%3A%2F%2F12.rarbg.me%3A80%2Fannounce&tr=udp%3A%2F%2Fopen.demonii.com%3A1337]]></torrent:magnetURI>
        <torrent:seeds>323</torrent:seeds>
        <torrent:peers>408</torrent:peers>
        <torrent:verified>1</torrent:verified>
        <torrent:fileName>face.off.s07e01.hdtv.x264.crimson.rartv.torrent</torrent:fileName>
        <enclosure url="http://torcache.net/torrent/D0F04DDDDF8298F96302E7640B397850E085FB12.torrent?title=[kickass.to]face.off.s07e01.hdtv.x264.crimson.rartv" length="309404107" type="application/x-bittorrent" />
    </item>
    <item>
        <title>The Daily Show 2014 07 22 Richard Linklater HDTV x264-LMAO [VTV]</title>
      <description><![CDATA[The Daily Show 2014.07.22 (HDTV-x264-LMAO)[VTV]]]></description>
        <category>TV</category>
      <author>http://kickass.to/user/VTV/</author>        <link>http://kickass.to/the-daily-show-2014-07-22-richard-linklater-hdtv-x264-lmao-vtv-t9365808.html</link>
        <guid>http://kickass.to/the-daily-show-2014-07-22-richard-linklater-hdtv-x264-lmao-vtv-t9365808.html</guid>
        <pubDate>Wed, 23 Jul 2014 04:06:02 +0000</pubDate>
        <torrent:contentLength>140174687</torrent:contentLength>
        <torrent:infoHash>E425EE719BFE29643852F8BF28D4DD2C532EC01D</torrent:infoHash>
        <torrent:magnetURI><![CDATA[magnet:?xt=urn:btih:E425EE719BFE29643852F8BF28D4DD2C532EC01D&dn=the+daily+show+2014+07+22+richard+linklater+hdtv+x264+lmao+vtv&tr=http%3A%2F%2Ftracker.trackerfix.com%2Fannounce&tr=udp%3A%2F%2Fopen.demonii.com%3A1337]]></torrent:magnetURI>
        <torrent:seeds>537</torrent:seeds>
        <torrent:peers>919</torrent:peers>
        <torrent:verified>1</torrent:verified>
        <torrent:fileName>the.daily.show.2014.07.22.richard.linklater.hdtv.x264.lmao.vtv.torrent</torrent:fileName>
        <enclosure url="http://torcache.net/torrent/E425EE719BFE29643852F8BF28D4DD2C532EC01D.torrent?title=[kickass.to]the.daily.show.2014.07.22.richard.linklater.hdtv.x264.lmao.vtv" length="140174687" type="application/x-bittorrent" />
    </item>
    <item>
        <title>The.Daily.Show.2014.07.22.Richard.Linklater.HDTV.x264-LMAO[rartv]</title>
      <description><![CDATA[The.Daily.Show.2014.07.22.Richard.Linklater.HDTV.x264-LMAO[rartv]

[img]//dyncdn.me/posters2/7/7c2ca907b438de2ffa168463ba3df129d56e761e.jpg[/img]



[mediainfo]

Video
ID : 1
Format : AVC
Format/Info : Advanced Video Codec
Format profile : High@L3.1
Format settings, CABAC : Yes
Format settings, ReFrames : 5 frames
Codec ID : avc1
Codec ID/Info : Advanced Video Coding
Duration : 21mn 28s
Bit rate : 735 Kbps
Width : 720 pixels
Height : 404 pixels
Display aspect ratio : 16:9
Frame rate mode : Constant
Frame rate : 29.970 fps
Color space : YUV
Chroma subsampling : 4:2:0
Bit depth : 8 bits
Scan type : Progressive
Bits/(Pixel*Frame) : 0.084
Stream size : 113 MiB (84%)
Writing library : x264 core 142 r2453 ea0ca51
Encoding settings : cabac=1 / ref=5 / deblock=1:0:0 / analyse=0x3:0x113 / me=umh / subme=8 / psy=1 / psy_rd=1.00:0.00 / mixed_ref=1 / me_range=16 / chroma_me=1 / trellis=1 / 8x8dct=1 / cqm=0 / deadzone=21,11 / fast_pskip=1 / chroma_qp_offset=-2 / threads=18 / lookahead_threads=3 / sliced_threads=0 / nr=0 / decimate=1 / interlaced=0 / bluray_compat=0 / constrained_intra=0 / bframes=3 / b_pyramid=2 / b_adapt=2 / b_bias=0 / direct=3 / weightb=1 / open_gop=0 / weightp=2 / keyint=250 / keyint_min=25 / scenecut=40 / intra_refresh=0 / rc_lookahead=50 / rc=crf / mbtree=1 / crf=20.0 / qcomp=0.60 / qpmin=0 / qpmax=69 / qpstep=4 / ip_ratio=1.40 / aq=1:1.00
Encoded date : UTC 2011-09-08 11:43:25
Tagged date : UTC 2011-09-08 11:43:25
Matrix coefficients : BT.709

Audio
ID : 2
Format : AAC
Format/Info : Advanced Audio Codec
Format profile : LC
Codec ID : 40
Duration : 21mn 28s
Bit rate mode : Variable
Bit rate : 129 Kbps
Maximum bit rate : 199 Kbps
Channel(s) : 2 channels
Channel positions : Front: L R
Sampling rate : 48.0 KHz
Compression mode : Lossy
Stream size : 19.8 MiB (15%)
Encoded date : UTC 2011-09-08 11:43:25
Tagged date : UTC 2011-09-08 11:43:25




[/mediainfo]

]]></description>
        <category>TV</category>
      <author>http://kickass.to/user/TryMeS/</author>        <link>http://kickass.to/the-daily-show-2014-07-22-richard-linklater-hdtv-x264-lmao-rartv-t9365746.html</link>
        <guid>http://kickass.to/the-daily-show-2014-07-22-richard-linklater-hdtv-x264-lmao-rartv-t9365746.html</guid>
        <pubDate>Wed, 23 Jul 2014 03:43:05 +0000</pubDate>
        <torrent:contentLength>140176323</torrent:contentLength>
        <torrent:infoHash>7C2CA907B438DE2FFA168463BA3DF129D56E761E</torrent:infoHash>
        <torrent:magnetURI><![CDATA[magnet:?xt=urn:btih:7C2CA907B438DE2FFA168463BA3DF129D56E761E&dn=the+daily+show+2014+07+22+richard+linklater+hdtv+x264+lmao+rartv&tr=udp%3A%2F%2F12.rarbg.me%3A80%2Fannounce&tr=udp%3A%2F%2Fopen.demonii.com%3A1337]]></torrent:magnetURI>
        <torrent:seeds>376</torrent:seeds>
        <torrent:peers>447</torrent:peers>
        <torrent:verified>1</torrent:verified>
        <torrent:fileName>the.daily.show.2014.07.22.richard.linklater.hdtv.x264.lmao.rartv.torrent</torrent:fileName>
        <enclosure url="http://torcache.net/torrent/7C2CA907B438DE2FFA168463BA3DF129D56E761E.torrent?title=[kickass.to]the.daily.show.2014.07.22.richard.linklater.hdtv.x264.lmao.rartv" length="140176323" type="application/x-bittorrent" />
    </item>
    <item>
        <title>The Daily Show 2014 07 22 Richard Linklater 720p HDTV x264-LMAO</title>
      <description><![CDATA[[b]The.Daily.Show.2014.07.22.Richard.Linklater.720p.HDTV.x264-LMAO.mkv[/b]

[b]SIZE:[/b] 442097281 bytes (421.62 MiB), 

[b]DURATION:[/b] 00:21:28, 

[b]AVG-BITRATE:[/b] 2746 kb/s

[b]AUDIO:[/b] ac3, 48000 Hz, stereo (eng)

[b]VIDEO:[/b] h264, yuv420p, 1280x720, 29.97 fps(r) (eng)

[b]SCREENS:[/b]
[url=http://www.vivaex.com/viewer.php?file=73749542692664842452.jpg][img]http://www.vivaex.com/images/73749542692664842452_thumb.jpg[/img][/url] 

[url=http://www.vivaex.com/viewer.php?file=12159732994322585033.jpg][size=150][b]View large Image[/b][/size][/url]

[url=http://www.vivaex.com/viewer.php?file=47423808224938577683.jpg][size=150][b]View large Image[/b][/size][/url]



[url=https://www.facebook.com/pages/High-Quality-Download-Links/1446110842281782]https://www.facebook.com/pages/High-Quality-Download-Links/1446110842281782[/url]

NOTE: If Rar files, then use winrar for decompress it http://www.rarlab.com/download.htm 
 Most of video format are supported by VLC http://www.videolan.org/vlc/]]></description>
        <category>TV</category>
      <author>http://kickass.to/user/brasse0/</author>        <link>http://kickass.to/the-daily-show-2014-07-22-richard-linklater-720p-hdtv-x264-lmao-t9365745.html</link>
        <guid>http://kickass.to/the-daily-show-2014-07-22-richard-linklater-720p-hdtv-x264-lmao-t9365745.html</guid>
        <pubDate>Wed, 23 Jul 2014 03:42:47 +0000</pubDate>
        <torrent:contentLength>442099126</torrent:contentLength>
        <torrent:infoHash>8D0C0E16927A791B9CC4005041537D55D23F6F5F</torrent:infoHash>
        <torrent:magnetURI><![CDATA[magnet:?xt=urn:btih:8D0C0E16927A791B9CC4005041537D55D23F6F5F&dn=the+daily+show+2014+07+22+richard+linklater+720p+hdtv+x264+lmao&tr=udp%3A%2F%2Fopen.demonii.com%3A1337%2Fannounce]]></torrent:magnetURI>
        <torrent:seeds>1</torrent:seeds>
        <torrent:peers>17</torrent:peers>
        <torrent:verified>1</torrent:verified>
        <torrent:fileName>the.daily.show.2014.07.22.richard.linklater.720p.hdtv.x264.lmao.torrent</torrent:fileName>
        <enclosure url="http://torcache.net/torrent/8D0C0E16927A791B9CC4005041537D55D23F6F5F.torrent?title=[kickass.to]the.daily.show.2014.07.22.richard.linklater.720p.hdtv.x264.lmao" length="442099126" type="application/x-bittorrent" />
    </item>
    <item>
        <title>The.Daily.Show.2014.07.22.Richard.Linklater.720p.HDTV.x264-LMAO[rartv]</title>
      <description><![CDATA[The.Daily.Show.2014.07.22.Richard.Linklater.720p.HDTV.x264-LMAO[rartv]

[img]//dyncdn.me/posters2/0/0d8ec58954d4d5328b8330df0ef6558f833d0fbf.jpg[/img]



[mediainfo]

Video
ID : 1
Format : AVC
Format/Info : Advanced Video Codec
Format profile : High@L4.1
Format settings, CABAC : Yes
Format settings, ReFrames : 5 frames
Codec ID : V_MPEG4/ISO/AVC
Duration : 21mn 28s
Bit rate : 2 306 Kbps
Width : 1 280 pixels
Height : 720 pixels
Display aspect ratio : 16:9
Frame rate mode : Constant
Frame rate : 29.970 fps
Color space : YUV
Chroma subsampling : 4:2:0
Bit depth : 8 bits
Scan type : Progressive
Bits/(Pixel*Frame) : 0.084
Stream size : 354 MiB (84%)
Writing library : x264 core 142 r2453 ea0ca51
Encoding settings : cabac=1 / ref=5 / deblock=1:-2:-2 / analyse=0x3:0x113 / me=umh / subme=8 / psy=1 / psy_rd=0.95:0.00 / mixed_ref=1 / me_range=16 / chroma_me=1 / trellis=1 / 8x8dct=1 / cqm=0 / deadzone=21,11 / fast_pskip=1 / chroma_qp_offset=-2 / threads=18 / lookahead_threads=3 / sliced_threads=0 / nr=0 / decimate=1 / interlaced=0 / bluray_compat=0 / constrained_intra=0 / bframes=3 / b_pyramid=2 / b_adapt=2 / b_bias=0 / direct=3 / weightb=1 / open_gop=0 / weightp=2 / keyint=250 / keyint_min=25 / scenecut=40 / intra_refresh=0 / rc_lookahead=50 / rc=crf / mbtree=1 / crf=19.0 / qcomp=0.60 / qpmin=0 / qpmax=69 / qpstep=4 / ip_ratio=1.40 / aq=2:0.60
Language : English
Default : Yes
Forced : No

Audio
ID : 2
Format : AC-3
Format/Info : Audio Coding 3
Mode extension : CM (complete main)
Format settings, Endianness : Big
Codec ID : A_AC3
Duration : 21mn 28s
Bit rate mode : Constant
Bit rate : 384 Kbps
Channel(s) : 2 channels
Channel positions : Front: L R
Sampling rate : 48.0 KHz
Bit depth : 16 bits
Compression mode : Lossy
Stream size : 59.0 MiB (14%)
Language : English
Default : Yes
Forced : No




[/mediainfo]

]]></description>
        <category>TV</category>
      <author>http://kickass.to/user/TryMeS/</author>        <link>http://kickass.to/the-daily-show-2014-07-22-richard-linklater-720p-hdtv-x264-lmao-rartv-t9365743.html</link>
        <guid>http://kickass.to/the-daily-show-2014-07-22-richard-linklater-720p-hdtv-x264-lmao-rartv-t9365743.html</guid>
        <pubDate>Wed, 23 Jul 2014 03:41:48 +0000</pubDate>
        <torrent:contentLength>442098917</torrent:contentLength>
        <torrent:infoHash>0D8EC58954D4D5328B8330DF0EF6558F833D0FBF</torrent:infoHash>
        <torrent:magnetURI><![CDATA[magnet:?xt=urn:btih:0D8EC58954D4D5328B8330DF0EF6558F833D0FBF&dn=the+daily+show+2014+07+22+richard+linklater+720p+hdtv+x264+lmao+rartv&tr=udp%3A%2F%2F12.rarbg.me%3A80%2Fannounce&tr=udp%3A%2F%2Fopen.demonii.com%3A1337]]></torrent:magnetURI>
        <torrent:seeds>335</torrent:seeds>
        <torrent:peers>391</torrent:peers>
        <torrent:verified>1</torrent:verified>
        <torrent:fileName>the.daily.show.2014.07.22.richard.linklater.720p.hdtv.x264.lmao.rartv.torrent</torrent:fileName>
        <enclosure url="http://torcache.net/torrent/0D8EC58954D4D5328B8330DF0EF6558F833D0FBF.torrent?title=[kickass.to]the.daily.show.2014.07.22.richard.linklater.720p.hdtv.x264.lmao.rartv" length="442098917" type="application/x-bittorrent" />
    </item>
    <item>
        <title>The Daily Show 2014 07 21 Sue Turton 480p HDTV x264-mSD</title>
      <description><![CDATA[[center][size=100]
[img]http://www.imgclik.com/images/56127245548223862551.jpg[/img]

[color=blue][b]PLOT:........ [/b][/color]America&#039;s top fake news show.


[color=blue][b]
ACTORS:........ [/b][/color]Jon Stewart, Stephen Colbert, John Oliver


[color=blue][b]
RELEASED:........ [/b][/color]1996


[color=blue][b]
IMDB:........ [/b][/color]http://www.imdb.com/title/tt0115147/


[i][color=blue][b]
SIZE:........ [/b][/color] 92714834 bytes (88.42 MiB), 
[color=blue][b]DURATION:............ [/b][/color] 00:21:29, 
[color=blue][b]AVG-BITRATE:......... [/b][/color] 575 kb/s
[color=blue][b]AUDIO:....... [/b][/color] aac, 48000 Hz, stereo
[color=blue][b]VIDEO:....... [/b][/color] h264, yuv420p, 852x480, 29.97 fps(r) (eng)
[/i]

[color=blue][b][url=http://www.imgclik.com/viewer.php?file=01275851413168784498.jpg]Screens[/url][/b][/color]
 [color=blue][b][url=http://www.imgclik.com/viewer.php?file=96253410896326208166.jpg]Screens[/url][/b][/color]
 
[color=blue][b][url=http://www.imgclik.com/viewer.php?file=36284327288423277409.jpg]Screens[/url][/b][/color]
 [color=blue][b][url=http://www.imgclik.com/viewer.php?file=64730555331380308756.jpg]Screens[/url][/b][/color]
 [color=blue][b][url=http://www.imgclik.com/viewer.php?file=55023493935042850203.jpg]Screens[/url][/b][/color]
 



[color=green][b]I KNOW YOU WANT IT[/b][/color]


[color=green][b]DOWNLOAD AND ENJOY.[/b][/color]



[color=silver][b]KEEP IT FOR LONG SEEDING TO HELP OTHERS[/b][/color]
[/size]
[size=100][color=silver]
 Thanks to : mSD
 Movie Share [/color][/size][/center]]]></description>
        <category>TV</category>
      <author>http://kickass.to/user/hotpena/</author>        <link>http://kickass.to/the-daily-show-2014-07-21-sue-turton-480p-hdtv-x264-msd-t9364821.html</link>
        <guid>http://kickass.to/the-daily-show-2014-07-21-sue-turton-480p-hdtv-x264-msd-t9364821.html</guid>
        <pubDate>Tue, 22 Jul 2014 21:37:25 +0000</pubDate>
        <torrent:contentLength>92724488</torrent:contentLength>
        <torrent:infoHash>07E6ECF367E3956E27130CC9DB1E9C8A72BD929D</torrent:infoHash>
        <torrent:magnetURI><![CDATA[magnet:?xt=urn:btih:07E6ECF367E3956E27130CC9DB1E9C8A72BD929D&dn=the+daily+show+2014+07+21+sue+turton+480p+hdtv+x264+msd&tr=udp%3A%2F%2Fopen.demonii.com%3A1337%2Fannounce]]></torrent:magnetURI>
        <torrent:seeds>25</torrent:seeds>
        <torrent:peers>34</torrent:peers>
        <torrent:verified>1</torrent:verified>
        <torrent:fileName>the.daily.show.2014.07.21.sue.turton.480p.hdtv.x264.msd.torrent</torrent:fileName>
        <enclosure url="http://torcache.net/torrent/07E6ECF367E3956E27130CC9DB1E9C8A72BD929D.torrent?title=[kickass.to]the.daily.show.2014.07.21.sue.turton.480p.hdtv.x264.msd" length="92724488" type="application/x-bittorrent" />
    </item>
    <item>
        <title>The Daily Show 2014 07 21 Sue Turton HDTV x264-BATV [eztv]</title>
      <description><![CDATA[Help us by donating with Bitcoin: 1EZTVaGQ6UsjYJ9fwqGnd45oZ6HGT7WKZd

#EZTV -&gt; To avoid fakes, ALWAYS check that the torrent was added by eztv.

https://eztv.it/

Episode: The Daily Show 2014 07 21 Sue Turton HDTV x264-BATV
Screenshots:


]]></description>
        <category>TV</category>
      <author>http://kickass.to/user/EZTV/</author>        <link>http://kickass.to/the-daily-show-2014-07-21-sue-turton-hdtv-x264-batv-eztv-t9363991.html</link>
        <guid>http://kickass.to/the-daily-show-2014-07-21-sue-turton-hdtv-x264-batv-eztv-t9363991.html</guid>
        <pubDate>Tue, 22 Jul 2014 16:53:34 +0000</pubDate>
        <torrent:contentLength>161209411</torrent:contentLength>
        <torrent:infoHash>1218D686B9833D462A903F58D99771E1667D4CE9</torrent:infoHash>
        <torrent:magnetURI><![CDATA[magnet:?xt=urn:btih:1218D686B9833D462A903F58D99771E1667D4CE9&dn=the+daily+show+2014+07+21+sue+turton+hdtv+x264+batv+eztv&tr=udp%3A%2F%2Fopen.demonii.com%3A1337%2Fannounce]]></torrent:magnetURI>
        <torrent:seeds>1203</torrent:seeds>
        <torrent:peers>1462</torrent:peers>
        <torrent:verified>1</torrent:verified>
        <torrent:fileName>the.daily.show.2014.07.21.sue.turton.hdtv.x264.batv.eztv.torrent</torrent:fileName>
        <enclosure url="http://torcache.net/torrent/1218D686B9833D462A903F58D99771E1667D4CE9.torrent?title=[kickass.to]the.daily.show.2014.07.21.sue.turton.hdtv.x264.batv.eztv" length="161209411" type="application/x-bittorrent" />
    </item>
    <item>
        <title>The Daily Show 2014 07 21 Sue Turton HDTV x264-BATV [VTV] mp4</title>
      <description><![CDATA[The Daily Show 2014.07.21 (HDTV-x264-BATV)[VTV]]]></description>
        <category>TV</category>
      <author>http://kickass.to/user/VTV/</author>        <link>http://kickass.to/the-daily-show-2014-07-21-sue-turton-hdtv-x264-batv-vtv-mp4-t9361625.html</link>
        <guid>http://kickass.to/the-daily-show-2014-07-21-sue-turton-hdtv-x264-batv-vtv-mp4-t9361625.html</guid>
        <pubDate>Tue, 22 Jul 2014 03:48:02 +0000</pubDate>
        <torrent:contentLength>161209411</torrent:contentLength>
        <torrent:infoHash>5FFDDF43F6B844D987179BB8CBF96BDB767503BA</torrent:infoHash>
        <torrent:magnetURI><![CDATA[magnet:?xt=urn:btih:5FFDDF43F6B844D987179BB8CBF96BDB767503BA&dn=the+daily+show+2014+07+21+sue+turton+hdtv+x264+batv+vtv+mp4&tr=http%3A%2F%2Ftracker.trackerfix.com%2Fannounce&tr=udp%3A%2F%2Fopen.demonii.com%3A1337]]></torrent:magnetURI>
        <torrent:seeds>1112</torrent:seeds>
        <torrent:peers>1401</torrent:peers>
        <torrent:verified>1</torrent:verified>
        <torrent:fileName>the.daily.show.2014.07.21.sue.turton.hdtv.x264.batv.vtv.mp4.torrent</torrent:fileName>
        <enclosure url="http://torcache.net/torrent/5FFDDF43F6B844D987179BB8CBF96BDB767503BA.torrent?title=[kickass.to]the.daily.show.2014.07.21.sue.turton.hdtv.x264.batv.vtv.mp4" length="161209411" type="application/x-bittorrent" />
    </item>
    <item>
        <title>The Daily Show 2014 07 21 Sue Turton 720p HDTV x264-BATV</title>
      <description><![CDATA[[b]The.Daily.Show.2014.07.21.Sue.Turton.720p.HDTV.x264-BATV.mkv[/b]

[b]SIZE:[/b] 524581653 bytes (500.28 MiB), 

[b]DURATION:[/b] 00:21:29, 

[b]AVG-BITRATE:[/b] 3256 kb/s

[b]AUDIO:[/b] ac3, 48000 Hz, 5:1

[b]VIDEO:[/b] h264, yuv420p, 1280x720, 29.97 fps(r) (eng)

[b]SCREENS:[/b]
[url=http://www.vivaex.com/viewer.php?file=52256412878797653527.jpg][img]http://www.vivaex.com/images/52256412878797653527_thumb.jpg[/img][/url] 

[url=http://www.vivaex.com/viewer.php?file=68072964931340747694.jpg][size=150][b]View large Image[/b][/size][/url]

[url=http://www.vivaex.com/viewer.php?file=02625248521836220659.jpg][size=150][b]View large Image[/b][/size][/url]



[url=https://www.facebook.com/pages/High-Quality-Download-Links/1446110842281782]https://www.facebook.com/pages/High-Quality-Download-Links/1446110842281782[/url]

NOTE: If Rar files, then use winrar for decompress it http://www.rarlab.com/download.htm 
 Most of video format are supported by VLC http://www.videolan.org/vlc/]]></description>
        <category>TV</category>
      <author>http://kickass.to/user/brasse0/</author>        <link>http://kickass.to/the-daily-show-2014-07-21-sue-turton-720p-hdtv-x264-batv-t9361602.html</link>
        <guid>http://kickass.to/the-daily-show-2014-07-21-sue-turton-720p-hdtv-x264-batv-t9361602.html</guid>
        <pubDate>Tue, 22 Jul 2014 03:39:07 +0000</pubDate>
        <torrent:contentLength>524583908</torrent:contentLength>
        <torrent:infoHash>DC79269A236F6D567569DA8F02E22017C95F8A95</torrent:infoHash>
        <torrent:magnetURI><![CDATA[magnet:?xt=urn:btih:DC79269A236F6D567569DA8F02E22017C95F8A95&dn=the+daily+show+2014+07+21+sue+turton+720p+hdtv+x264+batv&tr=udp%3A%2F%2Fopen.demonii.com%3A1337%2Fannounce]]></torrent:magnetURI>
        <torrent:seeds>27</torrent:seeds>
        <torrent:peers>32</torrent:peers>
        <torrent:verified>1</torrent:verified>
        <torrent:fileName>the.daily.show.2014.07.21.sue.turton.720p.hdtv.x264.batv.torrent</torrent:fileName>
        <enclosure url="http://torcache.net/torrent/DC79269A236F6D567569DA8F02E22017C95F8A95.torrent?title=[kickass.to]the.daily.show.2014.07.21.sue.turton.720p.hdtv.x264.batv" length="524583908" type="application/x-bittorrent" />
    </item>
    <item>
        <title>The.Daily.Show.2014.07.21.Sue.Turton.720p.HDTV.x264-BATV[rartv]</title>
      <description><![CDATA[The.Daily.Show.2014.07.21.Sue.Turton.720p.HDTV.x264-BATV[rartv]

[img]//dyncdn.me/posters2/0/0698e307862c781e5f6c4a68640f8e3a9ad4623a.jpg[/img]



[mediainfo]

Video
ID : 1
Format : AVC
Format/Info : Advanced Video Codec
Format profile : High@L4.1
Format settings, CABAC : Yes
Format settings, ReFrames : 5 frames
Codec ID : V_MPEG4/ISO/AVC
Duration : 21mn 29s
Bit rate : 2 807 Kbps
Width : 1 280 pixels
Height : 720 pixels
Display aspect ratio : 16:9
Frame rate mode : Constant
Frame rate : 29.970 fps
Color space : YUV
Chroma subsampling : 4:2:0
Bit depth : 8 bits
Scan type : Progressive
Bits/(Pixel*Frame) : 0.102
Stream size : 431 MiB (86%)
Writing library : x264 core 142 r2431 ac76440
Encoding settings : cabac=1 / ref=5 / deblock=1:0:0 / analyse=0x3:0x113 / me=umh / subme=8 / psy=1 / psy_rd=1.00:0.00 / mixed_ref=1 / me_range=16 / chroma_me=1 / trellis=1 / 8x8dct=1 / cqm=0 / deadzone=21,11 / fast_pskip=1 / chroma_qp_offset=-2 / threads=18 / lookahead_threads=3 / sliced_threads=0 / nr=0 / decimate=1 / interlaced=0 / bluray_compat=0 / constrained_intra=0 / bframes=3 / b_pyramid=2 / b_adapt=2 / b_bias=0 / direct=3 / weightb=1 / open_gop=0 / weightp=2 / keyint=250 / keyint_min=25 / scenecut=40 / intra_refresh=0 / rc_lookahead=50 / rc=crf / mbtree=1 / crf=18.0 / qcomp=0.60 / qpmin=0 / qpmax=69 / qpstep=4 / ip_ratio=1.40 / aq=1:1.00
Language : English
Default : Yes
Forced : No
Matrix coefficients : BT.709

Audio
ID : 2
Format : AC-3
Format/Info : Audio Coding 3
Mode extension : CM (complete main)
Format settings, Endianness : Big
Codec ID : A_AC3
Duration : 21mn 29s
Bit rate mode : Constant
Bit rate : 384 Kbps
Channel(s) : 6 channels
Channel positions : Front: L C R, Side: L R, LFE
Sampling rate : 48.0 KHz
Bit depth : 16 bits
Compression mode : Lossy
Stream size : 59.0 MiB (12%)
Default : Yes
Forced : No




[/mediainfo]

]]></description>
        <category>TV</category>
      <author>http://kickass.to/user/TryMeS/</author>        <link>http://kickass.to/the-daily-show-2014-07-21-sue-turton-720p-hdtv-x264-batv-rartv-t9361598.html</link>
        <guid>http://kickass.to/the-daily-show-2014-07-21-sue-turton-720p-hdtv-x264-batv-rartv-t9361598.html</guid>
        <pubDate>Tue, 22 Jul 2014 03:38:18 +0000</pubDate>
        <torrent:contentLength>524582478</torrent:contentLength>
        <torrent:infoHash>0698E307862C781E5F6C4A68640F8E3A9AD4623A</torrent:infoHash>
        <torrent:magnetURI><![CDATA[magnet:?xt=urn:btih:0698E307862C781E5F6C4A68640F8E3A9AD4623A&dn=the+daily+show+2014+07+21+sue+turton+720p+hdtv+x264+batv+rartv&tr=http%3A%2F%2Ftracker.trackerfix.com%2Fannounce&tr=udp%3A%2F%2Fopen.demonii.com%3A1337]]></torrent:magnetURI>
        <torrent:seeds>298</torrent:seeds>
        <torrent:peers>325</torrent:peers>
        <torrent:verified>1</torrent:verified>
        <torrent:fileName>the.daily.show.2014.07.21.sue.turton.720p.hdtv.x264.batv.rartv.torrent</torrent:fileName>
        <enclosure url="http://torcache.net/torrent/0698E307862C781E5F6C4A68640F8E3A9AD4623A.torrent?title=[kickass.to]the.daily.show.2014.07.21.sue.turton.720p.hdtv.x264.batv.rartv" length="524582478" type="application/x-bittorrent" />
    </item>
    <item>
        <title>The.Daily.Show.2014.07.21.Sue.Turton.HDTV.x264-BATV[rartv]</title>
      <description><![CDATA[The.Daily.Show.2014.07.21.Sue.Turton.HDTV.x264-BATV[rartv]

[img]//dyncdn.me/posters2/0/0918c1521c5e9cb7d3aa19b3804b5a28958c8f06.jpg[/img]



[mediainfo]

Video
ID : 2
Format : AVC
Format/Info : Advanced Video Codec
Format profile : High@L3.1
Format settings, CABAC : Yes
Format settings, ReFrames : 5 frames
Codec ID : avc1
Codec ID/Info : Advanced Video Coding
Duration : 21mn 29s
Source duration : 21mn 29s
Bit rate : 883 Kbps
Maximum bit rate : 4 306 Kbps
Width : 720 pixels
Height : 404 pixels
Display aspect ratio : 16:9
Frame rate mode : Constant
Frame rate : 29.970 fps
Color space : YUV
Chroma subsampling : 4:2:0
Bit depth : 8 bits
Scan type : Progressive
Bits/(Pixel*Frame) : 0.101
Stream size : 136 MiB (88%)
Source stream size : 136 MiB (88%)
Writing library : x264 core 142 r2431 ac76440
Encoding settings : cabac=1 / ref=5 / deblock=1:0:0 / analyse=0x3:0x113 / me=umh / subme=8 / psy=1 / psy_rd=1.00:0.00 / mixed_ref=1 / me_range=16 / chroma_me=1 / trellis=1 / 8x8dct=1 / cqm=0 / deadzone=21,11 / fast_pskip=1 / chroma_qp_offset=-2 / threads=18 / lookahead_threads=3 / sliced_threads=0 / nr=0 / decimate=1 / interlaced=0 / bluray_compat=0 / constrained_intra=0 / bframes=3 / b_pyramid=2 / b_adapt=2 / b_bias=0 / direct=3 / weightb=1 / open_gop=0 / weightp=2 / keyint=250 / keyint_min=25 / scenecut=40 / intra_refresh=0 / rc_lookahead=50 / rc=crf / mbtree=1 / crf=19.0 / qcomp=0.60 / qpmin=0 / qpmax=69 / qpstep=4 / ip_ratio=1.40 / aq=1:1.00
Encoded date : UTC 2014-07-22 03:15:47
Tagged date : UTC 2014-07-22 03:33:00
Matrix coefficients : BT.709

Audio
ID : 1
Format : AAC
Format/Info : Advanced Audio Codec
Format profile : LC
Codec ID : 40
Duration : 21mn 29s
Bit rate mode : Variable
Bit rate : 113 Kbps
Maximum bit rate : 146 Kbps
Channel(s) : 2 channels
Channel positions : Front: L R
Sampling rate : 48.0 KHz
Compression mode : Lossy
Stream size : 17.4 MiB (11%)
Encoded date : UTC 2014-07-22 03:32:59
Tagged date : UTC 2014-07-22 03:33:00




[/mediainfo]

]]></description>
        <category>TV</category>
      <author>http://kickass.to/user/TryMeS/</author>        <link>http://kickass.to/the-daily-show-2014-07-21-sue-turton-hdtv-x264-batv-rartv-t9361584.html</link>
        <guid>http://kickass.to/the-daily-show-2014-07-21-sue-turton-hdtv-x264-batv-rartv-t9361584.html</guid>
        <pubDate>Tue, 22 Jul 2014 03:34:11 +0000</pubDate>
        <torrent:contentLength>161210228</torrent:contentLength>
        <torrent:infoHash>0918C1521C5E9CB7D3AA19B3804B5A28958C8F06</torrent:infoHash>
        <torrent:magnetURI><![CDATA[magnet:?xt=urn:btih:0918C1521C5E9CB7D3AA19B3804B5A28958C8F06&dn=the+daily+show+2014+07+21+sue+turton+hdtv+x264+batv+rartv&tr=udp%3A%2F%2F12.rarbg.me%3A80%2Fannounce&tr=udp%3A%2F%2Fopen.demonii.com%3A1337]]></torrent:magnetURI>
        <torrent:seeds>135</torrent:seeds>
        <torrent:peers>140</torrent:peers>
        <torrent:verified>1</torrent:verified>
        <torrent:fileName>the.daily.show.2014.07.21.sue.turton.hdtv.x264.batv.rartv.torrent</torrent:fileName>
        <enclosure url="http://torcache.net/torrent/0918C1521C5E9CB7D3AA19B3804B5A28958C8F06.torrent?title=[kickass.to]the.daily.show.2014.07.21.sue.turton.hdtv.x264.batv.rartv" length="161210228" type="application/x-bittorrent" />
    </item>
    <item>
        <title>The Daily Show 2014 07 17 Emma Stone HDTV x264-LMAO - [GloTV]</title>
      <description><![CDATA[
[b]=================================
GloTorrents - A BitTorrent Community
====================================
For more info Check 
http://www.tvrage.com/schedule.php?show_yesterday=1
 		 
x264
Encode Information
Resolution....: 720x404
Video : x264
Audio : AAC 2ch 48khz
Frame Rate : 23.976024 fps
 		 
Visit http://glotorrents.com for more..
 		 
[URL=http://facebook.com/glotorrents][IMG]http://imgchicken.com/images/70062593280474318711.gif[/IMG][/URL]
==================================[/b]]]></description>
        <category>TV</category>
      <author>http://kickass.to/user/chrisowenlove/</author>        <link>http://kickass.to/the-daily-show-2014-07-17-emma-stone-hdtv-x264-lmao-glotv-t9350427.html</link>
        <guid>http://kickass.to/the-daily-show-2014-07-17-emma-stone-hdtv-x264-lmao-glotv-t9350427.html</guid>
        <pubDate>Sun, 20 Jul 2014 03:43:33 +0000</pubDate>
        <torrent:contentLength>148861084</torrent:contentLength>
        <torrent:infoHash>60BA5B217A921C7A2BCB4AA2FDD16794CF83972A</torrent:infoHash>
        <torrent:magnetURI><![CDATA[magnet:?xt=urn:btih:60BA5B217A921C7A2BCB4AA2FDD16794CF83972A&dn=the+daily+show+2014+07+17+emma+stone+hdtv+x264+lmao+glotv&tr=udp%3A%2F%2Fthepornvilla.com%3A6969%2Fannounce&tr=udp%3A%2F%2Fopen.demonii.com%3A1337]]></torrent:magnetURI>
        <torrent:seeds>11</torrent:seeds>
        <torrent:peers>15</torrent:peers>
        <torrent:verified>1</torrent:verified>
        <torrent:fileName>the.daily.show.2014.07.17.emma.stone.hdtv.x264.lmao.glotv.torrent</torrent:fileName>
        <enclosure url="http://torcache.net/torrent/60BA5B217A921C7A2BCB4AA2FDD16794CF83972A.torrent?title=[kickass.to]the.daily.show.2014.07.17.emma.stone.hdtv.x264.lmao.glotv" length="148861084" type="application/x-bittorrent" />
    </item>
    <item>
        <title>The Daily Show 2014 07 16 Jerry Seinfeld 480p HDTV x264-mSD</title>
      <description><![CDATA[http://www.torrenting.com

Sign up is OPEN - for time being. Come and have fun.]]></description>
        <category>TV</category>
      <author>http://kickass.to/user/TvTeam/</author>        <link>http://kickass.to/the-daily-show-2014-07-16-jerry-seinfeld-480p-hdtv-x264-msd-t9345801.html</link>
        <guid>http://kickass.to/the-daily-show-2014-07-16-jerry-seinfeld-480p-hdtv-x264-msd-t9345801.html</guid>
        <pubDate>Fri, 18 Jul 2014 20:00:02 +0000</pubDate>
        <torrent:contentLength>90567515</torrent:contentLength>
        <torrent:infoHash>BB50788C4A3F7A53C0A556E43A67B64F47BE5023</torrent:infoHash>
        <torrent:magnetURI><![CDATA[magnet:?xt=urn:btih:BB50788C4A3F7A53C0A556E43A67B64F47BE5023&dn=the+daily+show+2014+07+16+jerry+seinfeld+480p+hdtv+x264+msd&tr=udp%3A%2F%2Fopen.demonii.com%3A1337%2Fannounce]]></torrent:magnetURI>
        <torrent:seeds>4</torrent:seeds>
        <torrent:peers>7</torrent:peers>
        <torrent:verified>1</torrent:verified>
        <torrent:fileName>the.daily.show.2014.07.16.jerry.seinfeld.480p.hdtv.x264.msd.torrent</torrent:fileName>
        <enclosure url="http://torcache.net/torrent/BB50788C4A3F7A53C0A556E43A67B64F47BE5023.torrent?title=[kickass.to]the.daily.show.2014.07.16.jerry.seinfeld.480p.hdtv.x264.msd" length="90567515" type="application/x-bittorrent" />
    </item>
    <item>
        <title>The Daily Show 2014 07 16 Jerry Seinfeld 480p HDTV x264-mSD</title>
      <description><![CDATA[[center][size=100]
[img]http://www.imgclik.com/images/56511394284757591498.jpg[/img]

[color=blue][b]PLOT:........ [/b][/color]America&#039;s top fake news show.


[color=blue][b]
ACTORS:........ [/b][/color]Jon Stewart, Stephen Colbert, John Oliver


[color=blue][b]
RELEASED:........ [/b][/color]1996


[color=blue][b]
IMDB:........ [/b][/color]http://www.imdb.com/title/tt0115147/


[i][color=blue][b]
SIZE:........ [/b][/color] 90566281 bytes (86.37 MiB), 
[color=blue][b]DURATION:............ [/b][/color] 00:21:29, 
[color=blue][b]AVG-BITRATE:......... [/b][/color] 562 kb/s
[color=blue][b]AUDIO:....... [/b][/color] aac, 48000 Hz, stereo (eng)
[color=blue][b]VIDEO:....... [/b][/color] h264, yuv420p, 852x480, 29.97 fps(r) (eng)
[/i]

[color=blue][b][url=http://www.imgclik.com/viewer.php?file=39346304559548424294.jpg]Screens[/url][/b][/color]
 [color=blue][b][url=http://www.imgclik.com/viewer.php?file=90506561682772770936.jpg]Screens[/url][/b][/color]
 
[color=blue][b][url=http://www.imgclik.com/viewer.php?file=15036614742869269961.jpg]Screens[/url][/b][/color]
 [color=blue][b][url=http://www.imgclik.com/viewer.php?file=98003333066240372063.jpg]Screens[/url][/b][/color]
 [color=blue][b][url=http://www.imgclik.com/viewer.php?file=65612231624740596158.jpg]Screens[/url][/b][/color]
 



[color=green][b]I KNOW YOU WANT IT[/b][/color]


[color=green][b]DOWNLOAD AND ENJOY.[/b][/color]



[color=silver][b]KEEP IT FOR LONG SEEDING TO HELP OTHERS[/b][/color]
[/size]
[size=100][color=silver]
 Thanks to : mSD
 Movie Share [/color][/size][/center]]]></description>
        <category>TV</category>
      <author>http://kickass.to/user/hotpena/</author>        <link>http://kickass.to/the-daily-show-2014-07-16-jerry-seinfeld-480p-hdtv-x264-msd-t9345780.html</link>
        <guid>http://kickass.to/the-daily-show-2014-07-16-jerry-seinfeld-480p-hdtv-x264-msd-t9345780.html</guid>
        <pubDate>Fri, 18 Jul 2014 19:56:56 +0000</pubDate>
        <torrent:contentLength>90575947</torrent:contentLength>
        <torrent:infoHash>86E5E926012E6F26F1B77596BECDE0A51B00629D</torrent:infoHash>
        <torrent:magnetURI><![CDATA[magnet:?xt=urn:btih:86E5E926012E6F26F1B77596BECDE0A51B00629D&dn=the+daily+show+2014+07+16+jerry+seinfeld+480p+hdtv+x264+msd&tr=udp%3A%2F%2Fopen.demonii.com%3A1337%2Fannounce]]></torrent:magnetURI>
        <torrent:seeds>9</torrent:seeds>
        <torrent:peers>16</torrent:peers>
        <torrent:verified>1</torrent:verified>
        <torrent:fileName>the.daily.show.2014.07.16.jerry.seinfeld.480p.hdtv.x264.msd.torrent</torrent:fileName>
        <enclosure url="http://torcache.net/torrent/86E5E926012E6F26F1B77596BECDE0A51B00629D.torrent?title=[kickass.to]the.daily.show.2014.07.16.jerry.seinfeld.480p.hdtv.x264.msd" length="90575947" type="application/x-bittorrent" />
    </item>
    <item>
        <title>The Daily Show 2014 07 17 Emma Stone 480p HDTV x264-mSD</title>
      <description><![CDATA[http://www.torrenting.com

Sign up is OPEN - for time being. Come and have fun.]]></description>
        <category>TV</category>
      <author>http://kickass.to/user/TvTeam/</author>        <link>http://kickass.to/the-daily-show-2014-07-17-emma-stone-480p-hdtv-x264-msd-t9345764.html</link>
        <guid>http://kickass.to/the-daily-show-2014-07-17-emma-stone-480p-hdtv-x264-msd-t9345764.html</guid>
        <pubDate>Fri, 18 Jul 2014 19:51:02 +0000</pubDate>
        <torrent:contentLength>97982576</torrent:contentLength>
        <torrent:infoHash>D6755738CA80CD39DA8DFB54D27103C241C9CB15</torrent:infoHash>
        <torrent:magnetURI><![CDATA[magnet:?xt=urn:btih:D6755738CA80CD39DA8DFB54D27103C241C9CB15&dn=the+daily+show+2014+07+17+emma+stone+480p+hdtv+x264+msd&tr=udp%3A%2F%2Fopen.demonii.com%3A1337%2Fannounce]]></torrent:magnetURI>
        <torrent:seeds>11</torrent:seeds>
        <torrent:peers>16</torrent:peers>
        <torrent:verified>1</torrent:verified>
        <torrent:fileName>the.daily.show.2014.07.17.emma.stone.480p.hdtv.x264.msd.torrent</torrent:fileName>
        <enclosure url="http://torcache.net/torrent/D6755738CA80CD39DA8DFB54D27103C241C9CB15.torrent?title=[kickass.to]the.daily.show.2014.07.17.emma.stone.480p.hdtv.x264.msd" length="97982576" type="application/x-bittorrent" />
    </item>
    <item>
        <title>The Daily Show 2014 07 17 Emma Stone 480p HDTV x264-mSD</title>
      <description><![CDATA[[center][size=100]
[img]http://www.imgclik.com/images/86093452392083112438.jpg[/img]

[color=blue][b]PLOT:........ [/b][/color]America&#039;s top fake news show.


[color=blue][b]
ACTORS:........ [/b][/color]Jon Stewart, Stephen Colbert, John Oliver


[color=blue][b]
RELEASED:........ [/b][/color]1996


[color=blue][b]
IMDB:........ [/b][/color]http://www.imdb.com/title/tt0115147/


[i][color=blue][b]
SIZE:........ [/b][/color] 97981354 bytes (93.44 MiB), 
[color=blue][b]DURATION:............ [/b][/color] 00:21:29, 
[color=blue][b]AVG-BITRATE:......... [/b][/color] 608 kb/s
[color=blue][b]AUDIO:....... [/b][/color] aac, 48000 Hz, stereo (eng)
[color=blue][b]VIDEO:....... [/b][/color] h264, yuv420p, 852x480, 29.97 fps(r) (eng)
[/i]

[color=blue][b][url=http://www.imgclik.com/viewer.php?file=25253064747368714062.jpg]Screens[/url][/b][/color]
 [color=blue][b][url=http://www.imgclik.com/viewer.php?file=25653486616247095593.jpg]Screens[/url][/b][/color]
 
[color=blue][b][url=http://www.imgclik.com/viewer.php?file=29696711369913071692.jpg]Screens[/url][/b][/color]
 [color=blue][b][url=http://www.imgclik.com/viewer.php?file=77196974084506359589.jpg]Screens[/url][/b][/color]
 [color=blue][b][url=http://www.imgclik.com/viewer.php?file=55463474006908484602.jpg]Screens[/url][/b][/color]
 



[color=green][b]I KNOW YOU WANT IT[/b][/color]


[color=green][b]DOWNLOAD AND ENJOY.[/b][/color]



[color=silver][b]KEEP IT FOR LONG SEEDING TO HELP OTHERS[/b][/color]
[/size]
[size=100][color=silver]
 Thanks to : mSD
 Movie Share [/color][/size][/center]]]></description>
        <category>TV</category>
      <author>http://kickass.to/user/hotpena/</author>        <link>http://kickass.to/the-daily-show-2014-07-17-emma-stone-480p-hdtv-x264-msd-t9345740.html</link>
        <guid>http://kickass.to/the-daily-show-2014-07-17-emma-stone-480p-hdtv-x264-msd-t9345740.html</guid>
        <pubDate>Fri, 18 Jul 2014 19:44:03 +0000</pubDate>
        <torrent:contentLength>97991008</torrent:contentLength>
        <torrent:infoHash>13BDCBE64EB6B29610F9817231FB1E3CEFB5D8D2</torrent:infoHash>
        <torrent:magnetURI><![CDATA[magnet:?xt=urn:btih:13BDCBE64EB6B29610F9817231FB1E3CEFB5D8D2&dn=the+daily+show+2014+07+17+emma+stone+480p+hdtv+x264+msd&tr=udp%3A%2F%2Fopen.demonii.com%3A1337%2Fannounce]]></torrent:magnetURI>
        <torrent:seeds>13</torrent:seeds>
        <torrent:peers>16</torrent:peers>
        <torrent:verified>1</torrent:verified>
        <torrent:fileName>the.daily.show.2014.07.17.emma.stone.480p.hdtv.x264.msd.torrent</torrent:fileName>
        <enclosure url="http://torcache.net/torrent/13BDCBE64EB6B29610F9817231FB1E3CEFB5D8D2.torrent?title=[kickass.to]the.daily.show.2014.07.17.emma.stone.480p.hdtv.x264.msd" length="97991008" type="application/x-bittorrent" />
    </item>
    <item>
        <title>The Daily Show 2014 07 17 Emma Stone HDTV XviD-AFG</title>
      <description><![CDATA[http://www.torrenting.com

Sign up is OPEN - for time being. Come and have fun.]]></description>
        <category>TV</category>
      <author>http://kickass.to/user/TvTeam/</author>        <link>http://kickass.to/the-daily-show-2014-07-17-emma-stone-hdtv-xvid-afg-t9344336.html</link>
        <guid>http://kickass.to/the-daily-show-2014-07-17-emma-stone-hdtv-xvid-afg-t9344336.html</guid>
        <pubDate>Fri, 18 Jul 2014 12:36:02 +0000</pubDate>
        <torrent:contentLength>222256870</torrent:contentLength>
        <torrent:infoHash>E0F7AA485C0C4ED9ACA36255E099AD1CA71FC51F</torrent:infoHash>
        <torrent:magnetURI><![CDATA[magnet:?xt=urn:btih:E0F7AA485C0C4ED9ACA36255E099AD1CA71FC51F&dn=the+daily+show+2014+07+17+emma+stone+hdtv+xvid+afg&tr=udp%3A%2F%2Fopen.demonii.com%3A1337%2Fannounce]]></torrent:magnetURI>
        <torrent:seeds>30</torrent:seeds>
        <torrent:peers>51</torrent:peers>
        <torrent:verified>1</torrent:verified>
        <torrent:fileName>the.daily.show.2014.07.17.emma.stone.hdtv.xvid.afg.torrent</torrent:fileName>
        <enclosure url="http://torcache.net/torrent/E0F7AA485C0C4ED9ACA36255E099AD1CA71FC51F.torrent?title=[kickass.to]the.daily.show.2014.07.17.emma.stone.hdtv.xvid.afg" length="222256870" type="application/x-bittorrent" />
    </item>
    <item>
        <title>Moto2 2014 Germany 720p HDTV x264-WHEELS</title>
      <description><![CDATA[[b]Moto2.2014.Germany.720p.HDTV.x264-WHEELS.mkv[/b]

[b]SIZE:[/b] 1270737226 bytes (1.18 GiB), 

[b]DURATION:[/b] 00:44:54, 

[b]AVG-BITRATE:[/b] 3774 kb/s

[b]AUDIO:[/b] ac3, 48000 Hz, 5:1

[b]VIDEO:[/b] h264, yuv420p, 1272x646, 59.94 fps(r) (eng)

[b]SCREENS:[/b]
[url=http://www.vivaex.com/viewer.php?file=23618877207859208749.jpg][img]http://www.vivaex.com/images/23618877207859208749_thumb.jpg[/img][/url] 

[url=http://www.vivaex.com/viewer.php?file=97193705494503528121.jpg][size=150][b]View large Image[/b][/size][/url]

[url=http://www.vivaex.com/viewer.php?file=94840496576849125267.jpg][size=150][b]View large Image[/b][/size][/url]



[url=https://www.facebook.com/pages/High-Quality-Download-Links/1446110842281782]https://www.facebook.com/pages/High-Quality-Download-Links/1446110842281782[/url]

NOTE: If Rar files, then use winrar for decompress it http://www.rarlab.com/download.htm 
 Most of video format are supported by VLC http://www.videolan.org/vlc/]]></description>
        <category>TV</category>
      <author>http://kickass.to/user/brasse0/</author>        <link>http://kickass.to/moto2-2014-germany-720p-hdtv-x264-wheels-t9342943.html</link>
        <guid>http://kickass.to/moto2-2014-germany-720p-hdtv-x264-wheels-t9342943.html</guid>
        <pubDate>Fri, 18 Jul 2014 04:48:40 +0000</pubDate>
        <torrent:contentLength>1270741787</torrent:contentLength>
        <torrent:infoHash>4E2BA812535514AD48D6B851D6569339028ADEB2</torrent:infoHash>
        <torrent:magnetURI><![CDATA[magnet:?xt=urn:btih:4E2BA812535514AD48D6B851D6569339028ADEB2&dn=moto2+2014+germany+720p+hdtv+x264+wheels&tr=udp%3A%2F%2Fopen.demonii.com%3A1337%2Fannounce]]></torrent:magnetURI>
        <torrent:seeds>5</torrent:seeds>
        <torrent:peers>7</torrent:peers>
        <torrent:verified>1</torrent:verified>
        <torrent:fileName>moto2.2014.germany.720p.hdtv.x264.wheels.torrent</torrent:fileName>
        <enclosure url="http://torcache.net/torrent/4E2BA812535514AD48D6B851D6569339028ADEB2.torrent?title=[kickass.to]moto2.2014.germany.720p.hdtv.x264.wheels" length="1270741787" type="application/x-bittorrent" />
    </item>
    <item>
        <title>The Daily Show 2014 07 17 Emma Stone HDTV x264-LMAO [eztv]</title>
      <description><![CDATA[Help us by donating with Bitcoin: 1EZTVaGQ6UsjYJ9fwqGnd45oZ6HGT7WKZd

#EZTV -&gt; To avoid fakes, ALWAYS check that the torrent was added by eztv.

https://eztv.it/

Episode: The Daily Show 2014 07 17 Emma Stone HDTV x264-LMAO
Screenshots:


]]></description>
        <category>TV</category>
      <author>http://kickass.to/user/EZTV/</author>        <link>http://kickass.to/the-daily-show-2014-07-17-emma-stone-hdtv-x264-lmao-eztv-t9342797.html</link>
        <guid>http://kickass.to/the-daily-show-2014-07-17-emma-stone-hdtv-x264-lmao-eztv-t9342797.html</guid>
        <pubDate>Fri, 18 Jul 2014 03:54:11 +0000</pubDate>
        <torrent:contentLength>148860845</torrent:contentLength>
        <torrent:infoHash>B75DB5CD2DF035855E18600A55CC0DF248DAB54C</torrent:infoHash>
        <torrent:magnetURI><![CDATA[magnet:?xt=urn:btih:B75DB5CD2DF035855E18600A55CC0DF248DAB54C&dn=the+daily+show+2014+07+17+emma+stone+hdtv+x264+lmao+eztv&tr=udp%3A%2F%2Fopen.demonii.com%3A1337%2Fannounce]]></torrent:magnetURI>
        <torrent:seeds>1740</torrent:seeds>
        <torrent:peers>2386</torrent:peers>
        <torrent:verified>1</torrent:verified>
        <torrent:fileName>the.daily.show.2014.07.17.emma.stone.hdtv.x264.lmao.eztv.torrent</torrent:fileName>
        <enclosure url="http://torcache.net/torrent/B75DB5CD2DF035855E18600A55CC0DF248DAB54C.torrent?title=[kickass.to]the.daily.show.2014.07.17.emma.stone.hdtv.x264.lmao.eztv" length="148860845" type="application/x-bittorrent" />
    </item>
    </channel>
</rss>
